<svg width="39" height="39" viewBox="0 0 39 39" fill="none" xmlns="http://www.w3.org/2000/svg">
<path d="M12.7998 1H26.7998C33.1511 1 38.2998 6.14873 38.2998 12.5V26.5C38.2998 32.8513 33.1511 38 26.7998 38H12.7998C6.44853 38 1.2998 32.8513 1.2998 26.5V12.5C1.2998 6.14873 6.44853 1 12.7998 1Z" fill="white"/>
<path d="M12.7998 1H26.7998C33.1511 1 38.2998 6.14873 38.2998 12.5V26.5C38.2998 32.8513 33.1511 38 26.7998 38H12.7998C6.44853 38 1.2998 32.8513 1.2998 26.5V12.5C1.2998 6.14873 6.44853 1 12.7998 1Z" stroke="#DEE2E6"/>
<path d="M19.0798 25.1H20.4798V24.1C21.1465 23.98 21.7198 23.72 22.1998 23.32C22.6798 22.92 22.9198 22.3267 22.9198 21.54C22.9198 20.98 22.7598 20.4667 22.4398 20C22.1198 19.5333 21.4798 19.1267 20.5198 18.78C19.7198 18.5133 19.1665 18.28 18.8598 18.08C18.5531 17.88 18.3998 17.6067 18.3998 17.26C18.3998 16.9133 18.5231 16.64 18.7698 16.44C19.0165 16.24 19.3731 16.14 19.8398 16.14C20.2665 16.14 20.5998 16.2433 20.8398 16.45C21.0798 16.6567 21.2531 16.9133 21.3598 17.22L22.6398 16.7C22.4931 16.2333 22.2231 15.8267 21.8298 15.48C21.4365 15.1333 20.9998 14.94 20.5198 14.9V13.9H19.1198V14.9C18.4531 15.0467 17.9331 15.34 17.5598 15.78C17.1865 16.22 16.9998 16.7133 16.9998 17.26C16.9998 17.8867 17.1831 18.3933 17.5498 18.78C17.9165 19.1667 18.4931 19.5 19.2798 19.78C20.1198 20.0867 20.7031 20.36 21.0298 20.6C21.3565 20.84 21.5198 21.1533 21.5198 21.54C21.5198 21.98 21.3631 22.3033 21.0498 22.51C20.7365 22.7167 20.3598 22.82 19.9198 22.82C19.4798 22.82 19.0898 22.6833 18.7498 22.41C18.4098 22.1367 18.1598 21.7267 17.9998 21.18L16.6798 21.7C16.8665 22.34 17.1565 22.8567 17.5498 23.25C17.9431 23.6433 18.4531 23.9133 19.0798 24.06V25.1ZM19.7998 27.5C18.6931 27.5 17.6531 27.29 16.6798 26.87C15.7065 26.45 14.8598 25.88 14.1398 25.16C13.4198 24.44 12.8498 23.5933 12.4298 22.62C12.0098 21.6467 11.7998 20.6067 11.7998 19.5C11.7998 18.3933 12.0098 17.3533 12.4298 16.38C12.8498 15.4067 13.4198 14.56 14.1398 13.84C14.8598 13.12 15.7065 12.55 16.6798 12.13C17.6531 11.71 18.6931 11.5 19.7998 11.5C20.9065 11.5 21.9465 11.71 22.9198 12.13C23.8931 12.55 24.7398 13.12 25.4598 13.84C26.1798 14.56 26.7498 15.4067 27.1698 16.38C27.5898 17.3533 27.7998 18.3933 27.7998 19.5C27.7998 20.6067 27.5898 21.6467 27.1698 22.62C26.7498 23.5933 26.1798 24.44 25.4598 25.16C24.7398 25.88 23.8931 26.45 22.9198 26.87C21.9465 27.29 20.9065 27.5 19.7998 27.5Z" fill="#E23429"/>
</svg>
