<svg width="39" height="39" viewBox="0 0 39 39" fill="none" xmlns="http://www.w3.org/2000/svg">
<path d="M12.5 1H26.5C32.8513 1 38 6.14873 38 12.5V26.5C38 32.8513 32.8513 38 26.5 38H12.5C6.14873 38 1 32.8513 1 26.5V12.5C1 6.14873 6.14873 1 12.5 1Z" fill="white"/>
<path d="M12.5 1H26.5C32.8513 1 38 6.14873 38 12.5V26.5C38 32.8513 32.8513 38 26.5 38H12.5C6.14873 38 1 32.8513 1 26.5V12.5C1 6.14873 6.14873 1 12.5 1Z" stroke="#DEE2E6"/>
<path d="M24.9534 24.5007H23.4897C23.3696 24.5007 23.2545 24.5484 23.1695 24.6333C23.0846 24.7182 23.0369 24.8334 23.0369 24.9535C23.0369 25.0736 23.0846 25.1887 23.1695 25.2737C23.2545 25.3586 23.3696 25.4063 23.4897 25.4063H23.7252C22.6508 26.1756 21.388 26.6395 20.0711 26.7489C18.7542 26.8582 17.4323 26.6089 16.2457 26.0273C16.138 25.9748 16.0139 25.9672 15.9006 26.0061C15.7873 26.045 15.694 26.1271 15.6412 26.2346C15.5883 26.3421 15.5802 26.4662 15.6187 26.5797C15.6571 26.6931 15.7389 26.7867 15.8462 26.84C17.227 27.517 18.77 27.793 20.2999 27.6368C21.8298 27.4807 23.2851 26.8984 24.5006 25.9564V26.4172C24.5006 26.5373 24.5483 26.6525 24.6333 26.7374C24.7182 26.8223 24.8333 26.87 24.9534 26.87C25.0735 26.87 25.1887 26.8223 25.2736 26.7374C25.3585 26.6525 25.4062 26.5373 25.4062 26.4172V24.9535C25.4063 24.894 25.3946 24.8351 25.3718 24.7802C25.3491 24.7252 25.3157 24.6753 25.2737 24.6332C25.2316 24.5912 25.1817 24.5578 25.1268 24.5351C25.0718 24.5123 25.0129 24.5007 24.9534 24.5007Z" fill="#E23429"/>
<path d="M24.501 13.9761V15.4398C24.501 15.5599 24.5487 15.6751 24.6336 15.76C24.7185 15.8449 24.8337 15.8926 24.9538 15.8926C25.0739 15.8926 25.189 15.8449 25.274 15.76C25.3589 15.6751 25.4066 15.5599 25.4066 15.4398V15.2043C26.1759 16.2788 26.6398 17.5415 26.7492 18.8584C26.8585 20.1753 26.6091 21.4972 26.0276 22.6838C25.9751 22.7915 25.9675 22.9156 26.0064 23.0289C26.0453 23.1422 26.1274 23.2355 26.2349 23.2884C26.3424 23.3412 26.4665 23.3493 26.58 23.3109C26.6934 23.2724 26.787 23.1906 26.8403 23.0833C27.5173 21.7025 27.7933 20.1595 27.6371 18.6296C27.4809 17.0998 26.8987 15.6444 25.9567 14.4289H26.4175C26.5376 14.4289 26.6527 14.3812 26.7377 14.2963C26.8226 14.2113 26.8703 14.0962 26.8703 13.9761C26.8703 13.856 26.8226 13.7408 26.7377 13.6559C26.6527 13.571 26.5376 13.5233 26.4175 13.5233H24.9538C24.8943 13.5233 24.8354 13.5349 24.7805 13.5577C24.7255 13.5804 24.6756 13.6138 24.6335 13.6558C24.5915 13.6979 24.5581 13.7478 24.5354 13.8028C24.5126 13.8577 24.5009 13.9166 24.501 13.9761Z" fill="#E23429"/>
<path d="M13.9757 14.4289H15.4395C15.5595 14.4289 15.6747 14.3812 15.7596 14.2963C15.8446 14.2113 15.8923 14.0962 15.8923 13.9761C15.8923 13.856 15.8446 13.7408 15.7596 13.6559C15.6747 13.571 15.5595 13.5233 15.4395 13.5233H15.204C16.2784 12.754 17.5411 12.29 18.858 12.1807C20.175 12.0714 21.4969 12.3207 22.6835 12.9023C22.7912 12.9547 22.9153 12.9623 23.0286 12.9235C23.1419 12.8846 23.2352 12.8024 23.288 12.6949C23.3409 12.5874 23.349 12.4634 23.3105 12.3499C23.2721 12.2364 23.1903 12.1428 23.083 12.0896C21.7022 11.4125 20.1592 11.1364 18.6294 11.2925C17.0995 11.4486 15.6441 12.0307 14.4285 12.9727V12.5124C14.4285 12.3923 14.3808 12.2771 14.2959 12.1922C14.211 12.1073 14.0958 12.0596 13.9757 12.0596C13.8557 12.0596 13.7405 12.1073 13.6556 12.1922C13.5707 12.2771 13.5229 12.3923 13.5229 12.5124V13.9761C13.5229 14.0356 13.5346 14.0944 13.5573 14.1494C13.5801 14.2044 13.6134 14.2543 13.6555 14.2963C13.6975 14.3384 13.7475 14.3717 13.8024 14.3945C13.8574 14.4172 13.9163 14.4289 13.9757 14.4289Z" fill="#E23429"/>
<path d="M14.4289 24.9535V23.4898C14.4289 23.3697 14.3812 23.2545 14.2963 23.1696C14.2113 23.0847 14.0962 23.037 13.9761 23.037C13.856 23.037 13.7408 23.0847 13.6559 23.1696C13.571 23.2545 13.5233 23.3697 13.5233 23.4898V23.7252C12.754 22.6508 12.29 21.3881 12.1807 20.0712C12.0714 18.7543 12.3207 17.4323 12.9023 16.2458C12.9547 16.1381 12.9623 16.014 12.9235 15.9007C12.8846 15.7874 12.8024 15.6941 12.6949 15.6412C12.5874 15.5884 12.4634 15.5803 12.3499 15.6187C12.2364 15.6571 12.1428 15.739 12.0896 15.8463C11.4125 17.227 11.1364 18.77 11.2925 20.2999C11.4486 21.8297 12.0307 23.2851 12.9727 24.5007H12.5124C12.3923 24.5007 12.2771 24.5484 12.1922 24.6333C12.1073 24.7182 12.0596 24.8334 12.0596 24.9535C12.0596 25.0736 12.1073 25.1888 12.1922 25.2737C12.2771 25.3586 12.3923 25.4063 12.5124 25.4063H13.9761C14.0356 25.4063 14.0944 25.3946 14.1494 25.3719C14.2044 25.3491 14.2543 25.3158 14.2963 25.2737C14.3384 25.2317 14.3717 25.1818 14.3945 25.1268C14.4172 25.0719 14.4289 25.013 14.4289 24.9535Z" fill="#E23429"/>
<path d="M24.122 18.1064H23.5769C23.5101 17.9045 23.4285 17.7078 23.3326 17.518L23.7184 17.132C23.8032 17.0471 23.8509 16.9319 23.8509 16.8119C23.8509 16.6919 23.8032 16.5767 23.7184 16.4918L22.4379 15.2108C22.3529 15.1259 22.2377 15.0781 22.1176 15.0781C21.9974 15.0781 21.8822 15.1259 21.7972 15.2108L21.4117 15.5966C21.2218 15.5006 21.0251 15.419 20.8231 15.3523V14.8074C20.823 14.6873 20.7753 14.5722 20.6904 14.4873C20.6055 14.4024 20.4903 14.3547 20.3703 14.3546H18.5591C18.439 14.3547 18.3239 14.4024 18.239 14.4873C18.1541 14.5722 18.1063 14.6873 18.1063 14.8074V15.3526C17.9042 15.4193 17.7075 15.5009 17.5176 15.5968L17.1321 15.2111C17.0471 15.1261 16.9319 15.0784 16.8118 15.0784C16.6916 15.0784 16.5764 15.1261 16.4914 15.2111L15.2109 16.4918C15.1261 16.5767 15.0784 16.6919 15.0784 16.8119C15.0784 16.9319 15.1261 17.0471 15.2109 17.132L15.5967 17.518C15.5008 17.7078 15.4192 17.9045 15.3525 18.1064H14.8073C14.6872 18.1065 14.5721 18.1542 14.4872 18.2391C14.4023 18.324 14.3546 18.4391 14.3545 18.5592V20.3704C14.3546 20.4905 14.4023 20.6056 14.4872 20.6905C14.5721 20.7754 14.6872 20.8231 14.8073 20.8232H15.3525C15.4192 21.0251 15.5008 21.2218 15.5967 21.4116L15.2109 21.7976C15.1261 21.8825 15.0784 21.9976 15.0784 22.1177C15.0784 22.2377 15.1261 22.3528 15.2109 22.4377L16.4914 23.7188C16.5764 23.8037 16.6916 23.8514 16.8118 23.8514C16.9319 23.8514 17.0471 23.8037 17.1321 23.7188L17.5176 23.333C17.7075 23.4289 17.9042 23.5106 18.1063 23.5772V24.1222C18.1063 24.2422 18.1541 24.3574 18.239 24.4423C18.3239 24.5272 18.439 24.5749 18.5591 24.575H20.3703C20.4903 24.5749 20.6055 24.5272 20.6904 24.4423C20.7753 24.3574 20.823 24.2422 20.8231 24.1222V23.577C21.0251 23.5103 21.2218 23.4287 21.4117 23.3327L21.7972 23.7185C21.8822 23.8035 21.9974 23.8512 22.1176 23.8512C22.2377 23.8512 22.3529 23.8035 22.4379 23.7185L23.7184 22.4377C23.8032 22.3528 23.8509 22.2377 23.8509 22.1177C23.8509 21.9976 23.8032 21.8825 23.7184 21.7976L23.3326 21.4116C23.4285 21.2218 23.5101 21.0251 23.5769 20.8232H24.122C24.2421 20.8231 24.3572 20.7754 24.4421 20.6905C24.527 20.6056 24.5748 20.4905 24.5748 20.3704V18.5592C24.5748 18.4391 24.527 18.324 24.4421 18.2391C24.3572 18.1542 24.2421 18.1065 24.122 18.1064ZM19.4647 21.276C19.1064 21.276 18.7563 21.1698 18.4584 20.9707C18.1606 20.7717 17.9284 20.4889 17.7913 20.1579C17.6542 19.8269 17.6184 19.4628 17.6883 19.1114C17.7581 18.7601 17.9306 18.4374 18.184 18.1841C18.4373 17.9308 18.76 17.7583 19.1113 17.6884C19.4627 17.6185 19.8268 17.6544 20.1578 17.7915C20.4887 17.9285 20.7716 18.1607 20.9706 18.4585C21.1696 18.7564 21.2759 19.1066 21.2759 19.4648C21.2753 19.945 21.0843 20.4053 20.7448 20.7449C20.4052 21.0844 19.9449 21.2754 19.4647 21.276Z" fill="#E23429"/>
</svg>
